HIERARCHY
ROOT Hips
{
	OFFSET 0.00000 0.00000 0.00000
	CHANNELS 6 Xposition Yposition Zposition Zrotation Yrotation Xrotation 
	JOINT LHipJoint
	{
		OFFSET 0 0 0
		CHANNELS 3 Zrotation Yrotation Xrotation
		JOINT LeftUpLeg
		{
			OFFSET 1.62067 -1.77917 0.70989
			CHANNELS 3 Zrotation Yrotation Xrotation
			JOINT LeftLeg
			{
				OFFSET 2.34532 -6.44371 0.00000
				CHANNELS 3 Zrotation Yrotation Xrotation
				JOINT LeftFoot
				{
					OFFSET 2.74224 -7.53425 0.00000
					CHANNELS 3 Zrotation Yrotation Xrotation
					JOINT LeftToeBase
					{
						OFFSET 0.17032 -0.46794 2.08086
						CHANNELS 3 Zrotation Yrotation Xrotation
						End Site
						{
							OFFSET 0.00000 -0.00000 1.07476
						}
					}
				}
			}
		}
	}
	JOINT RHipJoint
	{
		OFFSET 0 0 0
		CHANNELS 3 Zrotation Yrotation Xrotation
		JOINT RightUpLeg
		{
			OFFSET -1.55811 -1.77917 0.70989
			CHANNELS 3 Zrotation Yrotation Xrotation
			JOINT RightLeg
			{
				OFFSET -2.33243 -6.40830 0.00000
				CHANNELS 3 Zrotation Yrotation Xrotation
				JOINT RightFoot
				{
					OFFSET -2.78798 -7.65993 0.00000
					CHANNELS 3 Zrotation Yrotation Xrotation
					JOINT RightToeBase
					{
						OFFSET -0.22707 -0.62388 2.04059
						CHANNELS 3 Zrotation Yrotation Xrotation
						End Site
						{
							OFFSET -0.00000 -0.00000 1.07030
						}
					}
				}
			}
		}
	}
	JOINT LowerBack
	{
		OFFSET 0 0 0
		CHANNELS 3 Zrotation Yrotation Xrotation
		JOINT Spine
		{
			OFFSET 0.02203 1.91565 0.07161
			CHANNELS 3 Zrotation Yrotation Xrotation
			JOINT Spine1
			{
				OFFSET 0.01740 1.90525 0.11636
				CHANNELS 3 Zrotation Yrotation Xrotation
				JOINT Neck
				{
					OFFSET 0 0 0
					CHANNELS 3 Zrotation Yrotation Xrotation
					JOINT Neck1
					{
						OFFSET -0.10841 1.83566 0.05067
						CHANNELS 3 Zrotation Yrotation Xrotation
						JOINT Head
						{
							OFFSET 0.06601 1.74760 -0.50505
							CHANNELS 3 Zrotation Yrotation Xrotation
							End Site
							{
								OFFSET 0.03102 1.85215 -0.17697
							}
						}
					}
				}
				JOINT LeftShoulder
				{
					OFFSET 0 0 0
					CHANNELS 3 Zrotation Yrotation Xrotation
					JOINT LeftArm
					{
						OFFSET 2.87059 1.35470 0.16111
						CHANNELS 3 Zrotation Yrotation Xrotation
						JOINT LeftForeArm
						{
							OFFSET 5.43592 -0.00000 0.00000
							CHANNELS 3 Zrotation Yrotation Xrotation
							JOINT LeftHand
							{
								OFFSET 3.25460 -0.00000 0.00000
								CHANNELS 3 Zrotation Yrotation Xrotation
								JOINT LeftFingerBase
								{
									OFFSET 0 0 0
									CHANNELS 3 Zrotation Yrotation Xrotation
									JOINT LeftHandIndex1
									{
										OFFSET 0.49824 -0.00000 0.00000
										CHANNELS 3 Zrotation Yrotation Xrotation
										End Site
										{
											OFFSET 0.40170 -0.00000 0.00000
										}
									}
								}
								JOINT LThumb
								{
									OFFSET 0 0 0
									CHANNELS 3 Zrotation Yrotation Xrotation
									End Site
									{
										OFFSET 0.40783 -0.00000 0.40783
									}
								}
							}
						}
					}
				}
				JOINT RightShoulder
				{
					OFFSET 0 0 0
					CHANNELS 3 Zrotation Yrotation Xrotation
					JOINT RightArm
					{
						OFFSET -2.86643 1.23488 0.45957
						CHANNELS 3 Zrotation Yrotation Xrotation
						JOINT RightForeArm
						{
							OFFSET -5.33830 -0.00000 0.00000
							CHANNELS 3 Zrotation Yrotation Xrotation
							JOINT RightHand
							{
								OFFSET -3.23148 -0.00000 0.00000
								CHANNELS 3 Zrotation Yrotation Xrotation
								JOINT RightFingerBase
								{
									OFFSET 0 0 0
									CHANNELS 3 Zrotation Yrotation Xrotation
									JOINT RightHandIndex1
									{
										OFFSET -0.46364 -0.00000 0.00000
										CHANNELS 3 Zrotation Yrotation Xrotation
										End Site
										{
											OFFSET -0.37380 -0.00000 0.00000
										}
									}
								}
								JOINT RThumb
								{
									OFFSET 0 0 0
									CHANNELS 3 Zrotation Yrotation Xrotation
									End Site
									{
										OFFSET -0.37951 -0.00000 0.37951
									}
								}
							}
						}
					}
				}
			}
		}
	}
}
MOTION
Frames: 6
Frame Time: .0083333
2.8914 16.7375 -0.0292 0 0 0 0 0 0 -21 0 0 0 0 0 0 0 0 0 0 0 0 0 0 21 0 0 0 0 0 0 0 0 0 0 0 0 0 0 0 0 0 0 0 0 0 0 -16 0 0 21 0 0 11 0 0 0 -8 0 0 0 0 0 0 0 0 0 0 0 0 0 0 0 0 0 0 0 0 8 0 0 0 0 0 0 0 0 0 0 0 0 0 0 0 0 0
2.8914 16.7375 -0.0292 11.7237 6.1754 14.5070 0.0000 0.0000 0.0000 -34.5516 -17.0276 -26.8936 3.9546 12.0998 36.0860 0.8431 3.7992 -19.1224 0.0787 1.8097 4.9802 0.0000 0.0000 0.0000 -9.4870 37.6567 -40.4897 -14.2862 -19.1985 73.0766 0.2047 8.3933 5.8110 -4.9427 13.3189 -40.5744 0.5135 1.2783 -6.0764 -7.5203 1.8845 -1.3358 -8.0356 0.9836 2.3036 5.6830 15.0357 -1.7015 -2.1694 25.1144 47.3168 2.1718 11.0086 20.0088 -0.0000 -0.0000 0.0000 -73.5134 -3.0684 44.1274 24.2337 -35.4104 -7.8415 -0.0000 0.0000 -72.6259 39.2187 -11.5002 -9.2417 -7.1250 0.0000 -0.0000 8.2727 15.3688 -5.8465 -0.0000 -0.0000 0.0000 90.1191 -5.7496 36.8125 -24.7939 35.9926 -8.1685 0.0000 -0.0000 -35.7960 -13.6767 -49.7776 10.5257 7.1250 -0.0000 -0.0000 54.2066 -75.0995 -40.9582
2.8980 16.7158 -0.0531 11.3580 4.8125 15.3950 0.0000 0.0000 0.0000 -34.0106 -16.9597 -28.8138 4.0942 12.2847 36.7465 0.8601 4.0400 -19.4321 0.1168 2.2029 6.0668 0.0000 0.0000 0.0000 -10.8841 38.6067 -42.7763 -14.3365 -19.2129 73.2296 0.2212 8.7964 6.3152 -4.9103 13.2821 -40.4339 0.6984 1.7349 -6.7008 -7.5349 2.4796 -1.7974 -8.0972 1.2748 2.2663 5.6882 15.0593 -1.6244 -2.1626 25.1540 47.3392 2.1741 11.0294 20.0076 -0.0000 0.0000 0.0000 -73.5314 -2.9975 44.1212 24.2198 -35.3958 -7.8335 -0.0000 0.0000 -72.5632 39.2522 -11.8900 -9.5561 -7.1250 0.0000 -0.0000 8.2315 14.8769 -5.9044 -0.0000 0.0000 0.0000 90.0905 -5.8324 36.9977 -24.8281 36.0278 -8.1886 0.0000 -0.0000 -36.2421 -14.9220 -48.9071 11.3562 7.1250 -0.0000 -0.0000 50.3548 -75.1281 -37.7620
2.9015 16.7204 -0.0522 11.3735 4.9133 15.3820 0.0000 0.0000 0.0000 -34.0096 -17.1165 -28.7525 4.0997 12.2919 36.7726 0.8664 3.9551 -19.4437 0.1487 2.4852 6.8485 0.0000 0.0000 0.0000 -10.8211 38.4853 -42.6569 -14.3259 -19.2099 73.1972 0.2288 8.8865 6.2079 -4.9814 13.3629 -40.7425 0.7530 1.7070 -6.7201 -7.5318 2.4403 -1.7785 -8.1291 1.2562 2.2930 5.6788 15.0540 -1.6179 -2.1425 25.1482 47.3812 2.1854 11.0260 20.0283 -0.0000 0.0000 0.0000 -73.5451 -2.9476 44.1125 24.2501 -35.4276 -7.8511 -0.0000 0.0000 -72.5597 40.0735 -9.6585 -8.0341 -7.1250 0.0000 -0.0000 9.1505 17.5368 -6.0459 -0.0000 0.0000 0.0000 90.0622 -5.8428 37.1768 -24.8482 36.0484 -8.2004 0.0000 -0.0000 -36.7603 -16.1300 -48.2820 12.1815 7.1250 -0.0000 -0.0000 47.3078 -75.2425 -35.3612
2.9002 16.7208 -0.0503 11.3779 4.9636 15.3437 0.0000 0.0000 0.0000 -34.0230 -17.0812 -28.7372 4.1215 12.3203 36.8747 0.8653 4.0465 -19.4867 0.1074 2.1135 5.8196 0.0000 0.0000 0.0000 -10.7612 38.4900 -42.5747 -14.3305 -19.2112 73.2112 0.2227 8.8101 6.2828 -4.8858 13.2541 -40.3271 0.7323 1.6883 -6.7228 -7.5166 2.4190 -1.7330 -8.1020 1.2470 2.3374 5.5983 15.0451 -1.7561 -2.0696 25.1204 47.4244 2.2401 11.0003 20.0551 0.0000 -0.0000 0.0000 -73.5419 -2.9320 44.1172 24.3206 -35.5014 -7.8919 -0.0000 0.0000 -72.6177 39.5362 -11.7032 -9.5046 -7.1250 0.0000 -0.0000 8.4518 15.0568 -6.0331 0.0000 -0.0000 0.0000 90.0501 -5.7593 37.0663 -24.7793 35.9775 -8.1599 0.0000 -0.0000 -36.2905 -14.8866 -49.1357 11.3670 7.1250 -0.0000 -0.0000 51.1332 -75.2372 -38.5114
2.8988 16.7216 -0.0486 11.3444 4.9864 15.3166 0.0000 0.0000 0.0000 -34.0166 -16.9853 -28.6823 4.1160 12.3132 36.8493 0.8617 4.1400 -19.5066 0.0743 1.7590 4.8401 0.0000 0.0000 0.0000 -10.6955 38.5258 -42.5257 -14.3286 -19.2107 73.2055 0.2119 8.6881 6.4537 -4.7248 13.0670 -39.6198 0.7543 1.6856 -6.6739 -7.5146 2.4105 -1.7590 -8.1146 1.2412 2.2824 5.6036 15.0329 -1.7555 -2.0327 25.0813 47.4241 2.2474 10.9907 20.0417 0.0000 -0.0000 0.0000 -73.5002 -2.8383 44.1457 24.3756 -35.5589 -7.9239 -0.0000 0.0000 -72.6869 39.5143 -11.2370 -9.1304 -7.1250 0.0000 -0.0000 8.5139 15.6442 -5.9698 0.0000 -0.0000 0.0000 90.0858 -5.8138 36.9462 -24.7214 35.9179 -8.1259 0.0000 -0.0000 -35.8069 -13.6467 -49.7899 10.5041 7.1250 -0.0000 -0.0000 54.2697 -75.0940 -41.0061
